<?xml version="1.0" encoding="UTF-8" standalone="no"?>
<svg
   xmlns:dc="http://purl.org/dc/elements/1.1/"
   xmlns:cc="http://creativecommons.org/ns#"
   xmlns:rdf="http://www.w3.org/1999/02/22-rdf-syntax-ns#"
   xmlns:svg="http://www.w3.org/2000/svg"
   xmlns="http://www.w3.org/2000/svg"
   height="39.900002"
   width="303.60001"
   xml:space="preserve"
   viewBox="0 0 303.60001 39.900002"
   y="0px"
   x="0px"
   id="Layer_1"
   version="1.1"><metadata
   id="metadata3815"><rdf:RDF><cc:Work
       rdf:about=""><dc:format>image/svg+xml</dc:format><dc:type
         rdf:resource="http://purl.org/dc/dcmitype/StillImage" /><dc:title></dc:title></cc:Work></rdf:RDF></metadata><defs
   id="defs3813" />
<style
   id="style3792"
   type="text/css">
	.st0{fill:#FFFFFF;}
</style>
<g
   transform="translate(-244.7,-286.1)"
   id="g3808">
	<path
   style="fill:#ffffff"
   id="path3794"
   d="m 261.1,302.1 c -4.3,-1.1 -8.4,-2.1 -8.4,-5.2 0,-2.9 2.7,-4.9 6.6,-4.9 4.2,0 8,1.5 10.6,4.3 l 0.3,0.4 3.8,-4.9 -0.3,-0.3 c -3.5,-3.6 -8.2,-5.4 -14,-5.4 -8,0 -13.8,4.7 -13.8,11.2 0,7.9 7.3,9.8 13.2,11.4 h 0.2 c 4.7,1.2 8.8,2.3 8.8,5.9 0,2.6 -2.1,5.4 -7.8,5.4 -6,0 -9.8,-3.2 -11.6,-5.2 l -0.3,-0.4 -3.7,5 0.2,0.3 c 3.6,4 8.9,6.1 15.2,6.1 10.8,0 14.7,-6.1 14.7,-11.8 0,-8.2 -7.6,-10.2 -13.7,-11.9 z"
   class="st0" />
	<path
   style="fill:#ffffff"
   id="path3796"
   d="m 319.7,309.9 c 0,6.5 -3.5,10.2 -9.7,10.2 -6.2,0 -9.8,-3.7 -9.8,-10.2 v -23.2 h -6.6 v 23.4 c 0,10.1 5.9,15.9 16.3,15.9 10.3,0 16.3,-5.8 16.3,-15.9 v -23.3 h -6.6 v 23.1 z"
   class="st0" />
	<polygon
   style="fill:#ffffff"
   id="polygon3798"
   points="345.4,286.7 345.4,325.2 351.8,325.2 351.8,297.6 372.1,325.2 378.2,325.2 378.2,286.7 371.7,286.7 371.7,313.6 351.8,286.7 "
   class="st0" />
	<path
   style="fill:#ffffff"
   id="path3800"
   d="M 411.9,286.7 H 398 v 38.6 h 13.9 c 11.8,0 20,-7.9 20,-19.3 0,-11.4 -8.2,-19.3 -20,-19.3 z m 0,32.7 h -7.4 v -26.9 h 7.4 c 8.1,0 13.3,5.3 13.3,13.5 0,8 -5.3,13.4 -13.3,13.4 z"
   class="st0" />
	<rect
   style="fill:#ffffff"
   id="rect3802"
   height="38.599998"
   width="6.5"
   class="st0"
   y="286.70001"
   x="448.60001" />
	<path
   style="fill:#ffffff"
   id="path3804"
   d="m 485.6,286.7 -15.3,38.6 h 7.4 l 3.1,-7.8 h 17.5 l 3.1,7.8 h 7.4 l -15.3,-38.6 z m 10.6,24.9 h -13.5 l 6.7,-17.5 z"
   class="st0" />
	<polygon
   style="fill:#ffffff"
   id="polygon3806"
   points="524.7,286.7 524.7,325.2 548.3,325.2 548.3,319.4 531.2,319.4 531.2,286.7 "
   class="st0" />
</g>
</svg>