<?xml version="1.0" encoding="UTF-8"?>
<svg width="80px" height="72px" viewBox="0 0 80 72" version="1.1" xmlns="http://www.w3.org/2000/svg" xmlns:xlink="http://www.w3.org/1999/xlink">
    <!-- Generator: Sketch 50.2 (55047) - http://www.bohemiancoding.com/sketch -->
    <title>Page 1</title>
    <desc>Created with Sketch.</desc>
    <defs>
        <polygon id="path-1" points="0.236476439 0.183826869 8.80122694 0.183826869 8.80122694 10.5088963 0.236476439 10.5088963"></polygon>
        <polygon id="path-3" points="0 71.1341937 79.7625231 71.1341937 79.7625231 0 0 0"></polygon>
    </defs>
    <g id="Page-1" stroke="none" stroke-width="1" fill="none" fill-rule="evenodd">
        <g id="Order-Details" transform="translate(-93.000000, -10.000000)">
            <g id="Page-1" transform="translate(93.000000, 10.000000)">
                <path d="M4.30864749,64.8551019 C3.17894114,64.5661073 2.10177926,64.3033849 2.10177926,63.4889454 C2.10177926,62.7270504 2.81112977,62.2016056 3.83574716,62.2016056 C4.93918127,62.2016056 5.93752642,62.5956892 6.62060468,63.3313119 L6.6994214,63.4364009 L7.69776655,62.1490611 L7.61894983,62.0702444 C6.6994214,61.1244437 5.46462609,60.6515434 3.94083612,60.6515434 C1.83905686,60.6515434 0.31526689,61.8863387 0.31526689,63.5940344 C0.31526689,65.6698041 2.23314047,66.168714 3.78320267,66.5893325 L3.83574716,66.5893325 C5.07054247,66.9043367 6.14770435,67.1933313 6.14770435,68.139132 C6.14770435,68.8222103 5.59598729,69.557833 4.09846956,69.557833 C2.52213512,69.557833 1.52378997,68.7171213 1.05088963,68.1916765 L0.972072909,68.0865875 L0,69.4001996 L0.0525444816,69.4790163 C0.99834515,70.5299059 2.39077391,71.081623 4.04592508,71.081623 C6.88332709,71.081623 7.90794448,69.4790163 7.90794448,67.9814986 C7.90794448,65.8271748 5.91125418,65.2757205 4.30864749,64.8551019" id="Fill-1" fill="#92B7BC"></path>
                <g id="Group-5" transform="translate(12.610676, 60.625297)">
                    <mask id="mask-2" fill="white">
                        <use xlink:href="#path-1"></use>
                    </mask>
                    <g id="Clip-4"></g>
                    <path d="M7.09353129,6.27898673 C7.09353129,7.98668239 6.17400286,8.95875529 4.54512393,8.95875529 C2.916245,8.95875529 1.97044433,7.98668239 1.97044433,6.27898673 L1.97044433,0.183826869 L0.236476439,0.183826869 L0.236476439,6.33153122 C0.236476439,8.98502754 1.78653865,10.5090802 4.51885169,10.5090802 C7.22489249,10.5090802 8.80122694,8.98529026 8.80122694,6.33153122 L8.80122694,0.21009911 L7.06725905,0.21009911 L7.06725905,6.27898673 L7.09353129,6.27898673 Z" id="Fill-3" fill="#92B7BC" mask="url(#mask-2)"></path>
                </g>
                <polygon id="Fill-6" fill="#92B7BC" points="33.3657721 67.8764096 28.1375962 60.8094396 26.4561728 60.8094396 26.4561728 70.9239895 28.1638684 70.9239895 28.1638684 63.6728511 33.470861 70.9239895 35.0734677 70.9239895 35.0734677 60.8094396 33.3657721 60.8094396"></polygon>
                <path d="M43.9534326,69.400147 L42.0092868,69.400147 L42.0092868,62.333177 L43.9534326,62.333177 C46.0814841,62.333177 47.4476406,63.725343 47.4476406,65.8799295 C47.4476406,67.9817087 46.0289396,69.400147 43.9534326,69.400147 M43.9534326,60.809387 L40.3015911,60.809387 L40.3015911,70.9502092 L43.9534326,70.9502092 C47.053557,70.9502092 49.2078807,68.8747022 49.2078807,65.8799295 C49.1816085,62.8846313 47.0272848,60.809387 43.9534326,60.809387" id="Fill-8" fill="#92B7BC"></path>
                <mask id="mask-4" fill="white">
                    <use xlink:href="#path-3"></use>
                </mask>
                <g id="Clip-11"></g>
                <polygon id="Fill-10" fill="#92B7BC" mask="url(#mask-4)" points="53.569099 70.9502881 55.2767946 70.9502881 55.2767946 60.8092031 53.569099 60.8092031"></polygon>
                <path d="M66.0747119,67.3509648 L62.5279594,67.3509648 L64.2881995,62.7533226 L66.0747119,67.3509648 Z M63.2895916,60.8094396 L59.2702015,70.9502618 L61.2143473,70.9502618 L62.0287868,68.901027 L66.6264289,68.901027 L67.4408684,70.9502618 L69.3850142,70.9502618 L65.3653614,60.8094396 L63.2895916,60.8094396 Z" id="Fill-12" fill="#92B7BC" mask="url(#mask-4)"></path>
                <polygon id="Fill-13" fill="#92B7BC" mask="url(#mask-4)" points="75.2699962 69.400147 75.2699962 60.809387 73.5623005 60.809387 73.5623005 70.923937 79.7625493 70.923937 79.7625493 69.400147"></polygon>
                <path d="M11.2134653,23.6529509 C11.4667297,30.7002168 14.2794358,37.3321185 19.2062691,42.4368149 C24.1110337,47.5186545 30.6026417,50.5604545 37.6007785,51.0835348 C36.9329381,43.2262958 34.1748783,36.5429004 29.5866942,31.693833 C24.9278377,26.7706777 18.594914,24.0039481 11.2134653,23.6529509 Z M40.0414697,53.4735206 L38.79564,53.4349004 C30.7179768,53.1845259 23.1770556,49.8421714 17.5616268,44.0241837 C11.9461981,38.206196 8.87365951,30.5512532 8.90938975,22.4696492 L8.9146442,21.3173487 L10.0669447,21.3320612 C27.2030137,21.5514344 38.9417137,33.6792262 39.9723737,52.2292672 L40.0414697,53.4735206 Z" id="Fill-14" fill="#92B7BC" mask="url(#mask-4)"></path>
                <path d="M69.624801,21.3328493 C69.2661849,21.3467736 61.1404435,21.7030252 54.9898492,25.070601 C55.1007181,25.9076346 55.175594,26.7465073 55.208697,27.5866935 L55.3382191,27.5070887 C59.743023,24.7989461 65.8631415,23.9556071 68.4646188,23.7104871 C67.8243643,33.7033967 63.7043515,41.2832008 56.2054658,46.2523325 C52.604067,48.6389028 49.0034564,49.8487395 46.7406283,50.429356 C50.5485269,43.2415337 52.0528754,36.5828342 52.2496545,30.7191328 C52.2446628,30.7186074 52.2396711,30.7175565 52.2346793,30.717031 C52.2459764,30.5830426 52.2533326,30.4495796 52.2622652,30.3158539 C52.4004572,24.449788 51.2352833,19.395797 49.7729704,15.4310532 C46.4229969,6.34611231 40.9743969,1.0054912 40.7439894,0.782439875 L39.9353298,5.25444816e-05 L39.1405945,0.796364163 C30.6249731,9.32538442 28.4251984,20.0780871 27.914466,23.6040846 C28.6477243,24.0630606 29.3578629,24.5530379 30.0419921,25.0771691 L30.0522383,24.952376 C30.0627472,24.8275828 31.1575114,12.7055709 39.9376943,3.26280213 C41.5379365,5.06271335 45.2328644,9.67743244 47.6614704,16.3122241 C49.5049935,21.3472991 50.2705666,26.5523554 49.9374346,31.7828958 C49.5204941,38.3328282 47.3682722,44.9565856 43.5409321,51.4713131 L42.3720801,53.4611726 L44.6630195,53.1847886 C44.9215384,53.1537874 51.0618865,52.3740273 57.3861403,48.2117162 C63.2430109,44.357053 70.3265325,36.7698926 70.8115181,22.5135239 L70.8532909,21.2850339 L69.624801,21.3328493 Z" id="Fill-15" fill="#92B7BC" mask="url(#mask-4)"></path>
            </g>
        </g>
    </g>
</svg>